<svg width="256" height="256" viewBox="0 0 256 256" fill="none" xmlns="http://www.w3.org/2000/svg">
<g clip-path="url(#clip0_2_19)">
<path d="M61.5849 168.315C61.5849 168.315 25.07 78.3592 113.373 54.0436C198.998 30.4657 221.347 159.011 202.564 179.56C179.501 204.792 176.958 199.922 128.91 193.236C80.8614 186.55 81.7249 206 81.7249 206" stroke="currentColor" stroke-width="20" stroke-linecap="round" stroke-linejoin="round"/>
<path d="M163.723 150.384C166.889 154.389 206.592 192.932 206.592 192.932C206.592 192.932 239.713 142.906 238.528 133.669C235.106 106.99 157.677 142.737 163.723 150.384Z" fill="currentColor"/>
<path d="M169.189 122.12C175.863 122.12 181.274 116.541 181.274 109.66C181.274 102.778 175.863 97.1996 169.189 97.1996C162.516 97.1996 157.105 102.778 157.105 109.66C157.105 116.541 162.516 122.12 169.189 122.12Z" fill="currentColor"/>
<path d="M105.03 134.58C111.704 134.58 117.114 129.002 117.114 122.12C117.114 115.238 111.704 109.66 105.03 109.66C98.3558 109.66 92.9456 115.238 92.9456 122.12C92.9456 129.002 98.3558 134.58 105.03 134.58Z" fill="currentColor"/>
<path d="M21.5929 147.649L79.1355 73.4941C79.1355 73.4941 54.6801 37.6322 29.0735 57.6904C3.46693 77.7486 14.3999 137.62 21.5929 147.649Z" fill="currentColor"/>
<path d="M243.994 68.0236L157.969 60.4256C157.969 60.4256 152.502 34.2893 176.095 28.515C199.687 22.7407 244.57 67.4159 243.994 68.0236Z" fill="currentColor"/>
</g>
<defs>
<clipPath id="clip0_2_19">
<rect width="231" height="188" fill="white" transform="translate(13 28)"/>
</clipPath>
</defs>
</svg>
